<?xml version="1.0" encoding="UTF-8"?>
<svg width="32px" height="32px" viewBox="0 0 32 32" version="1.1" xmlns="http://www.w3.org/2000/svg" xmlns:xlink="http://www.w3.org/1999/xlink">
    <title>domain</title>
    <g id="Footer-Re-Design" stroke="none" stroke-width="1" fill="none" fill-rule="evenodd">
        <g id="domain" fill-rule="nonzero">
            <path d="M18.5748837,31.751938 L17.1584496,31.751938 C16.9256545,31.759009 16.7192793,31.6031958 16.6623256,31.3773643 L15.875969,28.5122481 L15.8437209,28.6263566 L15.0548837,31.3823256 C14.9913505,31.6030143 14.7884002,31.7542122 14.5587597,31.751938 L13.1671318,31.751938 C12.9370751,31.7530514 12.7343547,31.6010111 12.6710078,31.379845 L11.0114729,25.4536434 C10.9675706,25.2990994 10.9992808,25.1328981 11.0969999,25.0053746 C11.1947191,24.8778512 11.3469531,24.8040052 11.5075969,24.8062016 L12.7950388,24.8062016 C13.0300336,24.7999191 13.2371786,24.9594207 13.2911628,25.1882171 L13.955969,27.7829457 L14.700155,25.1733333 C14.7660401,24.9546342 14.967873,24.8052778 15.1962791,24.8062016 L16.5779845,24.8062016 C16.8080412,24.8050881 17.0107615,24.9571284 17.0741085,25.1782946 L17.8182946,27.7953488 L18.5029457,25.1857364 C18.5627488,24.9611096 18.7666208,24.8051475 18.9990698,24.8062016 L20.264186,24.8062016 C20.4248299,24.8040052 20.5770639,24.8778512 20.674783,25.0053746 C20.7725021,25.1328981 20.8042124,25.2990994 20.7603101,25.4536434 L19.0635659,31.379845 C19.0017032,31.5988574 18.8024613,31.7505644 18.5748837,31.751938 Z M15.875969,27.3835659 C15.9898719,27.3790324 16.0922031,27.4527109 16.124031,27.5621705 L16.3968992,28.4849612 L17.1584496,31.255814 L18.5748837,31.255814 L20.2592248,25.3196899 L18.9817054,25.3023256 L18.0514729,28.8049612 C18.0225076,28.9173829 17.9194459,28.9946792 17.8034109,28.9910078 L17.8034109,28.9910078 C17.6888053,28.9952451 17.5862352,28.920369 17.5553488,28.8099225 L16.5631008,25.3122481 L15.1689922,25.3122481 L14.151938,28.8 C14.1201101,28.9094596 14.0177789,28.9831381 13.903876,28.9786047 C13.7931566,28.9768726 13.6969941,28.9019671 13.6682171,28.7950388 L12.7702326,25.3221705 L11.4703876,25.3221705 L13.1472868,31.255814 L14.5537984,31.255814 L15.627907,27.5621705 C15.6597349,27.4527109 15.7620661,27.3790324 15.875969,27.3835659 Z M8.00248062,31.751938 L6.58604651,31.751938 C6.3532514,31.759009 6.14687622,31.6031958 6.08992248,31.3773643 L5.29116279,28.5122481 L5.25891473,28.6263566 L4.47007752,31.3823256 C4.40654435,31.6030143 4.20359404,31.7542122 3.97395349,31.751938 L2.59472868,31.751938 C2.36467199,31.7530514 2.16195164,31.6010111 2.09860465,31.379845 L0.444031008,25.4536434 C0.394203018,25.2987036 0.423538156,25.129178 0.522532202,24.9999908 C0.621526248,24.8708036 0.777587868,24.7983864 0.940155039,24.8062016 L2.23255814,24.8062016 C2.46755299,24.7999191 2.67469801,24.9594207 2.72868217,25.1882171 L3.38356589,27.7829457 L4.12775194,25.1733333 C4.19292532,24.9541344 4.39520002,24.8044511 4.62387597,24.8062016 L6.0055814,24.8062016 C6.23563809,24.8050881 6.43835843,24.9571284 6.50170543,25.1782946 L7.23348837,27.7953488 L7.91813953,25.1857364 C7.97794259,24.9611096 8.1818146,24.8051475 8.41426357,24.8062016 L9.6744186,24.8062016 C9.83506242,24.8040052 9.98729645,24.8778512 10.0850156,25.0053746 C10.1827347,25.1328981 10.2144449,25.2990994 10.1705426,25.4536434 L8.49116279,31.379845 C8.43002972,31.5993531 8.23034198,31.7513996 8.00248062,31.751938 Z M5.29860465,27.3835659 L5.29860465,27.3835659 C5.41250754,27.3790324 5.51483879,27.4527109 5.54666667,27.5621705 L5.81953488,28.4849612 L6.58604651,31.255814 L8.00248062,31.255814 L9.68682171,25.3196899 L8.40930233,25.3023256 L7.47906977,28.8049612 C7.45010455,28.9173829 7.34704284,28.9946792 7.23100775,28.9910078 L7.23100775,28.9910078 C7.11640215,28.9952451 7.01383208,28.920369 6.98294574,28.8099225 L6.02046512,25.3023256 L4.62635659,25.3023256 L3.60930233,28.7900775 C3.57747445,28.8995371 3.4751432,28.9732156 3.36124031,28.9686822 L3.36124031,28.9686822 C3.24592402,28.9726322 3.14311048,28.8965502 3.11317829,28.7851163 L2.23255814,25.3023256 L0.932713178,25.3023256 L2.58232558,31.255814 L3.98883721,31.255814 L5.06294574,27.5621705 C5.09355412,27.4572071 5.1892749,27.3846608 5.29860465,27.3835659 Z M29.1472868,31.751938 L27.7308527,31.751938 C27.5005159,31.7539011 27.2973384,31.6015179 27.2347287,31.379845 L26.4384496,28.5122481 L26.4037209,28.6263566 L25.6148837,31.3823256 C25.5513505,31.6030143 25.3484002,31.7542122 25.1187597,31.751938 L23.7395349,31.751938 C23.5094782,31.7530514 23.3067578,31.6010111 23.2434109,31.379845 L21.5813953,25.4536434 C21.537493,25.2990994 21.5692033,25.1328981 21.6669224,25.0053746 C21.7646415,24.8778512 21.9168756,24.8040052 22.0775194,24.8061539 L23.3649612,24.8061539 C23.5984209,24.8045571 23.8030094,24.9620902 23.8610853,25.1882171 L24.5283721,27.7829457 L25.2725581,25.1733333 C25.3370088,24.9536287 25.539734,24.8036121 25.7686822,24.8061539 L27.1503876,24.8061539 C27.3804443,24.8050881 27.5831646,24.9571284 27.6465116,25.1782946 L28.3906977,27.7953488 L29.0753488,25.1857364 C29.1351519,24.9611096 29.3390239,24.8051475 29.5714729,24.8061539 L30.8365891,24.8061539 C30.997233,24.8040052 31.149467,24.8778512 31.2471861,25.0053746 C31.3449052,25.1328981 31.3766155,25.2990994 31.3327132,25.4536434 L29.6607752,31.379845 C29.5973727,31.6084761 29.3842938,31.7628811 29.1472868,31.751938 Z M26.4458915,27.3835659 L26.4458915,27.3835659 C26.5597944,27.3790324 26.6621256,27.4527109 26.6939535,27.5621705 L26.9668217,28.4849612 L27.7308527,31.255814 L29.1472868,31.255814 L30.8316279,25.3196899 L29.5541085,25.3023256 L28.623876,28.8049612 C28.5949107,28.9173829 28.491849,28.9946792 28.375814,28.9910078 L28.375814,28.9910078 C28.2612084,28.9952451 28.1586383,28.920369 28.1277519,28.8099225 L27.1652713,25.3023256 L25.7711628,25.3023256 L24.7541085,28.7900775 C24.7168291,28.8955708 24.617917,28.9667875 24.5060465,28.9686822 C24.3907302,28.9726322 24.2879167,28.8965502 24.2579845,28.7851163 L23.36,25.3122481 L22.0775194,25.3023256 L23.7271318,31.255814 L25.1336434,31.255814 L26.2077519,27.5621705 C26.2386219,27.4563307 26.3356417,27.3835659 26.4458915,27.3835659 Z" id="Shape" fill="#0B9DCC"></path>
            <path d="M29.3382946,23.8139535 C29.1602519,23.8155556 28.9950032,23.7216278 28.905289,23.5678321 C28.8155748,23.4140363 28.8151539,23.223959 28.904186,23.0697674 C32.3679579,16.8093732 30.8872138,8.97024479 25.3785102,4.40467411 C19.8698065,-0.160896571 11.8920539,-0.160896571 6.38335029,4.40467411 C0.87464665,8.97024479 -0.606097395,16.8093732 2.85767442,23.0697674 C2.94629844,23.2257457 2.94497699,23.4171559 2.85420785,23.5718957 C2.76343871,23.7266355 2.59701187,23.8211962 2.4176187,23.8199698 C2.23822554,23.8187193 2.07312015,23.7218698 1.98449612,23.5658915 C-1.71019381,16.8881376 -0.130733496,8.52640065 5.74521705,3.65645859 C11.6211676,-1.21348347 20.1307704,-1.21348347 26.0067209,3.65645859 C31.8826715,8.52640065 33.4621318,16.8881376 29.7674419,23.5658915 C29.6789088,23.7192355 29.5153608,23.8137719 29.3382946,23.8139535 L29.3382946,23.8139535 Z" id="Path" fill="#001B41"></path>
        </g>
    </g>
</svg>